<?xml version="1.0" standalone="no"?>
<!DOCTYPE svg PUBLIC "-//W3C//DTD SVG 20010904//EN"
 "http://www.w3.org/TR/2001/REC-SVG-20010904/DTD/svg10.dtd">
<svg version="1.0" xmlns="http://www.w3.org/2000/svg"
 width="1024.000000pt" height="1024.000000pt" viewBox="0 0 1024.000000 1024.000000"
 preserveAspectRatio="xMidYMid meet">

<g transform="translate(0.000000,1024.000000) scale(0.100000,-0.100000)"
fill="#000000" stroke="none">
<path d="M5015 8563 c-162 -6 -531 -52 -672 -83 -73 -17 -305 -87 -390 -119
-340 -126 -688 -319 -940 -521 -211 -170 -392 -358 -551 -573 -142 -192 -219
-314 -323 -512 -173 -329 -294 -711 -344 -1089 -43 -321 -41 -642 6 -921 68
-405 161 -696 317 -994 322 -617 786 -1111 1338 -1423 299 -170 634 -301 954
-373 337 -75 814 -92 1188 -40 596 83 1221 355 1677 730 455 375 766 802 985
1350 184 464 270 1014 230 1475 -42 485 -164 917 -376 1330 -143 281 -409 625
-665 861 -204 187 -287 252 -485 375 -430 268 -801 410 -1278 489 -142 23
-452 47 -555 43 -25 -1 -77 -3 -116 -5z m290 -173 c347 -20 556 -59 840 -155
296 -101 508 -206 778 -386 194 -130 217 -148 361 -277 312 -280 523 -563 721
-967 169 -345 268 -707 306 -1118 16 -180 6 -534 -20 -707 -67 -438 -213 -842
-438 -1212 -135 -222 -224 -335 -435 -548 -285 -289 -588 -501 -953 -668 -320
-147 -607 -229 -967 -278 -246 -33 -702 -18 -970 32 -496 93 -1017 336 -1398
653 -538 448 -919 1030 -1079 1653 -75 291 -101 499 -101 803 0 301 25 523 86
785 35 147 116 409 139 445 6 11 19 43 29 70 9 28 27 66 39 85 13 19 29 51 37
70 7 19 26 54 42 78 16 24 35 59 43 78 8 19 40 74 72 121 32 47 71 106 87 132
15 25 40 60 55 77 14 18 46 58 71 90 56 71 257 277 365 371 542 475 1190 736
1920 772 83 5 161 9 175 9 14 1 102 -3 195 -8z"/>
<path d="M4175 7520 c-613 -5 -799 -9 -830 -19 -185 -61 -313 -197 -370 -394
-33 -115 -36 -247 -40 -1566 l-3 -1313 101 7 c56 4 106 10 110 12 5 3 7 310 4
682 -3 372 -3 952 0 1288 l6 613 961 1 c529 1 1418 3 1977 3 l1016 1 6 -320
c4 -176 7 -760 7 -1297 l0 -978 68 0 c37 0 84 -4 105 -9 l37 -9 0 1397 c0
1362 -1 1400 -20 1475 -27 106 -69 177 -160 267 -85 85 -184 141 -281 159 -55
11 -1109 10 -2694 0z m1893 -230 c55 -34 77 -112 47 -170 -40 -78 -116 -92
-183 -35 -69 60 -67 132 5 195 40 36 83 39 131 10z m401 -9 c39 -28 64 -84 57
-127 -8 -41 -62 -100 -101 -110 -60 -15 -145 63 -145 133 0 106 105 164 189
104z m417 -25 c34 -33 44 -51 44 -75 0 -67 -65 -141 -123 -141 -43 0 -100 40
-122 85 -23 50 -13 96 31 140 30 30 41 35 81 35 41 0 50 -5 89 -44z m-3356
-109 c0 -24 -33 -45 -55 -37 -11 5 -14 9 -7 9 6 1 12 10 12 21 0 15 7 20 25
20 14 0 25 -6 25 -13z"/>
<path d="M4974 6503 c-31 -4 -31 -4 -38 -80 -3 -42 -6 -102 -6 -135 0 -48 -3
-58 -17 -58 -27 -1 -98 -35 -123 -60 l-21 -21 -87 82 c-48 44 -94 85 -104 90
-13 7 -45 -20 -156 -133 l-141 -142 20 -27 c10 -15 52 -58 94 -97 73 -68 74
-70 55 -87 -11 -10 -28 -43 -37 -74 -10 -31 -22 -59 -28 -63 -5 -4 -65 -8
-132 -8 l-123 0 0 -186 c0 -109 4 -193 10 -205 10 -17 22 -19 130 -19 l118 0
7 -32 c4 -18 21 -59 38 -91 l30 -57 -59 -63 c-32 -34 -76 -78 -96 -97 l-38
-35 144 -149 145 -149 42 39 c23 21 69 65 101 97 58 56 75 65 93 48 6 -5 37
-19 71 -31 l61 -22 7 -81 c3 -45 6 -107 6 -138 0 -37 4 -58 13 -60 6 -2 94 -3
195 -1 l182 3 1 97 c0 53 4 117 7 141 7 42 9 44 53 55 25 7 63 22 84 35 l39
22 100 -101 c56 -55 104 -102 108 -103 4 -1 18 13 31 31 14 18 74 84 134 146
l109 113 -94 98 -94 98 31 61 c17 34 34 78 37 98 l6 36 108 -5 c59 -3 119 -3
134 1 l26 6 0 190 c0 177 -1 190 -19 200 -11 5 -71 10 -133 10 l-114 0 -18 59
c-10 33 -23 67 -30 76 -10 14 0 29 70 100 45 45 88 85 95 87 19 6 -27 62 -119
146 -42 38 -95 92 -117 120 -22 28 -45 51 -51 52 -6 0 -56 -43 -111 -95 -100
-94 -100 -94 -119 -74 -21 24 -76 53 -115 62 l-26 7 0 112 c0 137 -4 154 -45
162 -32 6 -271 6 -324 -1z m308 -642 c67 -26 154 -101 191 -164 37 -63 67
-159 67 -216 0 -122 -75 -259 -180 -329 -83 -56 -149 -77 -240 -76 -119 0
-171 23 -261 113 -106 107 -124 148 -123 281 0 133 21 192 100 279 61 67 123
108 193 128 65 18 184 10 253 -16z"/>
<path d="M3916 6432 c-2 -4 -27 -63 -54 -132 -108 -272 -252 -761 -252 -857 0
-97 80 -358 253 -823 l65 -175 93 4 c52 2 100 8 107 13 20 17 14 69 -16 133
-63 131 -238 649 -267 785 -19 86 -16 112 26 265 86 309 193 588 263 684 20
27 36 53 36 59 0 6 -12 20 -26 31 -23 18 -41 21 -125 21 -54 0 -100 -3 -103
-8z"/>
<path d="M6146 6418 c-21 -30 -20 -42 8 -91 34 -59 118 -254 167 -388 22 -63
50 -138 60 -167 11 -29 33 -107 50 -174 38 -148 36 -181 -20 -358 -57 -184
-191 -538 -248 -655 -37 -79 -39 -92 -17 -123 14 -20 23 -22 118 -22 l104 0
20 48 c11 26 36 97 56 157 20 61 63 193 97 295 74 226 139 466 139 514 0 44
-109 436 -157 566 -19 52 -55 151 -79 220 -24 69 -52 142 -61 163 l-16 37
-103 0 c-95 0 -104 -2 -118 -22z"/>
<path d="M2633 3959 c13 -147 76 -289 170 -375 67 -62 139 -102 247 -136 l75
-23 2006 1 c2241 2 2058 -4 2209 74 133 70 216 169 266 316 14 42 28 107 31
145 l6 68 -946 -2 -945 -2 -23 -55 c-30 -73 -111 -153 -176 -174 -41 -13 -106
-15 -433 -13 l-385 2 -45 27 c-70 41 -150 139 -150 184 l0 21 -932 2 c-512 1
-943 4 -956 8 l-25 6 6 -74z"/>
</g>
</svg>
